# xmcd
#
# Track frame offsets: 
#        150
#        16272
#        33917
#        49906
#        67441
#        86120
#        102196
#        119643
#        134877
#        148657
#        163436
#
# Disc length: 2512 seconds
#
# Revision: 0
# Processed by: cddbd v1.5.2PL0 Copyright (c) Steve Scherf et al.
# Submitted via: ExactAudioCopy v0.99pb3
#
DISCID=af09ce0b
DTITLE=Jerry Forney - Poor Boy Blues
DYEAR=2003
DGENRE=Blues
TTITLE0=Mama Talk To Your Daughter
TTITLE1=I'll Play The Blues For You
TTITLE2=Sparrow In The Rain
TTITLE3=Chrome Where I Need It
TTITLE4=Poor Boy Blues
TTITLE5=Somewhere
TTITLE6=You Don't Have To Go
TTITLE7=Peace In Hell
TTITLE8=Slow Suicide
TTITLE9=Goin Down
TTITLE10=Spanish Love
EXTD=
EXTT0=
EXTT1=
EXTT2=
EXTT3=
EXTT4=
EXTT5=
EXTT6=
EXTT7=
EXTT8=
EXTT9=
EXTT10=
PLAYORDER=
